M48
; DRILL file {KiCad 7.0.8} date Sat Aug 31 11:23:08 2024
; FORMAT={-:-/ absolute / inch / decimal}
; #@! TF.CreationDate,2024-08-31T11:23:08+03:00
; #@! TF.GenerationSoftware,Kicad,Pcbnew,7.0.8
; #@! TF.FileFunction,Plated,1,2,PTH
FMAT,2
INCH
; #@! TA.AperFunction,Plated,PTH,ViaDrill
T1C0.0157
; #@! TA.AperFunction,Plated,PTH,ComponentDrill
T2C0.0315
; #@! TA.AperFunction,Plated,PTH,ViaDrill
T3C0.0394
; #@! TA.AperFunction,Plated,PTH,ComponentDrill
T4C0.0394
; #@! TA.AperFunction,Plated,PTH,ComponentDrill
T5C0.0433
%
G90
G05
T1
X1.8406Y-3.2372
X2.063Y-3.1348
X2.1053Y-3.4518
X2.2313Y-3.5561
X2.2648Y-3.6939
X2.2672Y-3.6284
X2.3474Y-3.2234
X2.4803Y-3.8701
X2.6137Y-3.6767
X2.7062Y-3.4877
X2.8371Y-3.78
T2
X2.1949Y-3.0974
X2.2431Y-3.3307
X2.2431Y-3.4291
X2.2933Y-3.0974
T3
X1.8455Y-3.9124
X1.9577Y-3.9094
X2.0719Y-3.9094
X2.7156Y-2.937
X2.8278Y-2.935
X2.94Y-2.9331
T4
X1.9065Y-3.5463
X1.9065Y-3.7431
X2.1033Y-3.5463
X2.1033Y-3.7431
T5
X1.9157Y-3.3435
X2.0157Y-3.3435
X2.6189Y-3.3917
X2.7189Y-3.3917
X2.8189Y-3.3917
T0
M30
